<svg width="512" height="512" viewBox="0 0 512 512" fill="none" xmlns="http://www.w3.org/2000/svg">
<g clip-path="url(#clip0_3_6)">
<path d="M506.3 417L293 53C276.67 25 235.46 25 219.02 53L5.82002 417C-10.59 444.9 9.84902 480 42.74 480H469.34C502.1 480 522.6 445 506.3 417ZM232 168C232 154.75 242.75 144 256 144C269.25 144 280 154.8 280 168V296C280 309.25 269.25 320 256.9 320C244.55 320 232 309.3 232 296V168ZM256 416C238.64 416 224.56 401.92 224.56 384.56C224.56 367.2 238.63 353.12 256 353.12C273.37 353.12 287.44 367.2 287.44 384.56C287.4 401.9 273.4 416 256 416Z" fill="white"/>
</g>
<defs>
<clipPath id="clip0_3_6">
<rect width="512" height="512" fill="white"/>
</clipPath>
</defs>
</svg>
