<svg width="448" height="512" viewBox="0 0 448 512" fill="none" xmlns="http://www.w3.org/2000/svg">
<path d="M412.6 181.9C402.32 173.556 387.19 175.025 378.85 185.306C370.444 195.556 371.944 210.676 382.225 219.086C393.5 228.4 400 241.8 400 256C400 270.19 393.5 283.62 382.19 292.87C371.91 301.276 370.41 316.4 378.815 326.65C383.534 332.462 390.435 335.462 397.375 335.462C402.719 335.462 408.125 333.681 412.565 330.056C435.1 311.6 448 284.7 448 256C448 227.3 435.1 200.4 412.6 181.9ZM301.2 34.84C289.7 29.653 276.19 31.724 266.77 40.099L131.8 160H48C21.49 160 0 181.49 0 207.1V302.2C0 328.71 21.49 349.3 48 349.3H131.84L266.74 469.2C272.7 477.2 280.3 480 288 480C292.438 480 296.959 479.069 301.16 477.163C312.7 472 320 460.6 320 448V64C320 51.41 312.7 39.1 301.2 34.84Z" fill="white"/>
</svg>
