<svg width="640" height="512" viewBox="0 0 640 512" fill="none" xmlns="http://www.w3.org/2000/svg">
<path d="M412.6 182C402.32 173.666 387.19 175.133 378.85 185.402C370.444 195.642 371.944 210.752 382.225 219.142C393.5 228.4 400 241.8 400 255.1C400 269.27 393.5 282.69 382.19 291.93C371.91 300.326 370.41 315.43 378.815 325.67C383.534 331.476 390.435 334.472 397.375 334.472C402.719 334.472 408.125 332.693 412.565 329.073C435.1 311.5 448 284.6 448 255.1C448 225.6 435.1 200.4 412.6 182ZM473.1 108.2C462.88 99.866 447.76 101.302 439.32 111.54C430.914 121.78 432.414 136.89 442.664 145.28C476.6 172.1 496 213.3 496 255.1C496 296.9 476.56 337.2 442.69 365.8C432.44 374.196 430.94 389.3 439.346 399.54C444.096 405.315 450.966 408.311 457.906 408.311C463.281 408.311 468.656 406.532 473.126 402.88C518.2 366.9 544 313 544 255.1C544 197.2 518.2 145 473.1 108.2ZM534.4 33.4C524.18 25.066 509.06 26.533 500.62 36.74C492.214 46.98 493.714 62.09 503.964 70.48C559.9 116.3 592 183.9 592 255.1C592 326.3 559.91 394.8 503.94 440.6C493.69 448.996 492.19 464.1 500.596 474.34C505.3 481 512.2 484 519.2 484C524.575 484 529.95 482.221 534.42 478.569C601.5 423.6 640 342.5 640 255.1C640 167.7 601.5 88.34 534.4 33.4ZM301.2 34.98C289.7 29.799 276.19 31.904 266.77 40.27L131.8 160.1H48C21.49 160.1 0 181.58 0 208.06V303.98C0 330.46 21.49 351.94 48 351.94H131.84L266.74 471.74C272.7 477 280.3 479.8 288 479.8C292.438 479.8 296.959 478.869 301.16 476.965C312.7 471.8 320 460.4 320 447.9V64.12C320 51.55 312.7 40.13 301.2 34.98Z" fill="white"/>
</svg>
